<?xml version="1.0" encoding="utf-8"?>
<svg version="1.1" xmlns:xlink="http://www.w3.org/1999/xlink" width="11px" height="6px" xmlns="http://www.w3.org/2000/svg">
  <g transform="matrix(1 0 0 1 -6972 -689 )">
    <path d="M 10.8897795591182 0.558075601374576  C 10.9632598530394 0.620084001527298  11 0.691393661702936  11 0.772004581901488  C 11 0.85261550210004  10.9632598530394 0.923925162275677  10.8897795591182 0.985933562428414  L 5.75350701402806 5.32032073310425  C 5.68002672010688 5.38232913325699  5.59552438209753 5.41333333333334  5.5 5.41333333333334  C 5.40447561790248 5.41333333333334  5.31997327989312 5.38232913325699  5.24649298597194 5.32032073310425  L 0.110220440881759 0.985933562428414  C 0.0367401469605864 0.923925162275677  0 0.85261550210004  0 0.772004581901488  C 0 0.691393661702936  0.0367401469605864 0.620084001527298  0.110220440881759 0.558075601374576  L 0.661322645290578 0.0930126002290912  C 0.734802939211751 0.0310042000763685  0.819305277221111 0  0.914829659318635 0  C 1.01035404141616 0  1.09485637942552 0.0310042000763685  1.16833667334669 0.0930126002290912  L 5.5 3.74840778923253  L 9.83166332665331 0.0930126002290912  C 9.90514362057448 0.0310042000763685  9.98964595858384 0  10.0851703406814 0  C 10.1806947227789 0  10.2651970607882 0.0310042000763685  10.3386773547094 0.0930126002290912  L 10.8897795591182 0.558075601374576  Z " fill-rule="nonzero" fill="#dcdfe6" stroke="none" transform="matrix(1 0 0 1 6972 689 )" />
  </g>
</svg>