<?xml version="1.0" encoding="utf-8"?>
<svg version="1.1" xmlns:xlink="http://www.w3.org/1999/xlink" width="20px" height="20px" xmlns="http://www.w3.org/2000/svg">
  <defs>
    <mask fill="white" id="clip126">
      <path d="M 10 20  C 4.40000000000009 20  0 15.6  0 10  C 0 4.39999999999998  4.40000000000009 0  10 0  C 15.3622653625823 0  19.6242543290391 4.03434678579413  19.9764554668884 9.29352892490067  C 19.9920711735551 9.5267219441472  20 9.76227976846747  20 10  C 20 15.6  15.5999999999999 20  10 20  Z " fill-rule="evenodd" />
    </mask>
  </defs>
  <g transform="matrix(1 0 0 1 -1601 -167 )">
    <path d="M 10 20  C 4.40000000000009 20  0 15.6  0 10  C 0 4.39999999999998  4.40000000000009 0  10 0  C 15.3622653625823 0  19.6242543290391 4.03434678579413  19.9764554668884 9.29352892490067  C 19.9920711735551 9.5267219441472  20 9.76227976846747  20 10  C 20 15.6  15.5999999999999 20  10 20  Z " fill-rule="nonzero" fill="#027db4" stroke="none" transform="matrix(1 0 0 1 1601 167 )" />
    <path d="M 10 20  C 4.40000000000009 20  0 15.6  0 10  C 0 4.39999999999998  4.40000000000009 0  10 0  C 15.3622653625823 0  19.6242543290391 4.03434678579413  19.9764554668884 9.29352892490067  C 19.9920711735551 9.5267219441472  20 9.76227976846747  20 10  C 20 15.6  15.5999999999999 20  10 20  Z " stroke-width="2" stroke="#ffffff" fill="none" transform="matrix(1 0 0 1 1601 167 )" mask="url(#clip126)" />
  </g>
</svg>