<?xml version="1.0" encoding="utf-8"?>
<svg version="1.1" xmlns:xlink="http://www.w3.org/1999/xlink" width="20px" height="20px" xmlns="http://www.w3.org/2000/svg">
  <defs>
    <mask fill="white" id="clip128">
      <path d="M 10 20  C 4.40000000000009 20  0 15.5999999999999  0 10  C 0 8.46672252600433  0.329851249169451 7.02340448360019  0.923871476064278 5.73572814423233  C 2.49943417755776 2.32038905710419  5.93330039917396 0  10 0  C 12.0453075993494 0  13.9305405873738 0.586940241524417  15.4997933359755 1.60491509647545  C 17.0506814976939 2.61097683692947  18.2929418262961 4.03804363448148  19.0760784656197 5.73561963296925  C 19.578025095951 6.8236705673603  19.8913595606955 8.02284912899245  19.9764554668884 9.29352892490078  C 19.9920711735551 9.52672194414708  20 9.76227976846758  20 10  C 20 15.5999999999999  15.5999999999999 20  10 20  Z " fill-rule="evenodd" />
    </mask>
  </defs>
  <g transform="matrix(1 0 0 1 -2926 -1017 )">
    <path d="M 10 20  C 4.40000000000009 20  0 15.5999999999999  0 10  C 0 8.46672252600433  0.329851249169451 7.02340448360019  0.923871476064278 5.73572814423233  C 2.49943417755776 2.32038905710419  5.93330039917396 0  10 0  C 12.0453075993494 0  13.9305405873738 0.586940241524417  15.4997933359755 1.60491509647545  C 17.0506814976939 2.61097683692947  18.2929418262961 4.03804363448148  19.0760784656197 5.73561963296925  C 19.578025095951 6.8236705673603  19.8913595606955 8.02284912899245  19.9764554668884 9.29352892490078  C 19.9920711735551 9.52672194414708  20 9.76227976846758  20 10  C 20 15.5999999999999  15.5999999999999 20  10 20  Z " fill-rule="nonzero" fill="#027db4" stroke="none" transform="matrix(1 0 0 1 2926 1017 )" />
    <path d="M 10 20  C 4.40000000000009 20  0 15.5999999999999  0 10  C 0 8.46672252600433  0.329851249169451 7.02340448360019  0.923871476064278 5.73572814423233  C 2.49943417755776 2.32038905710419  5.93330039917396 0  10 0  C 12.0453075993494 0  13.9305405873738 0.586940241524417  15.4997933359755 1.60491509647545  C 17.0506814976939 2.61097683692947  18.2929418262961 4.03804363448148  19.0760784656197 5.73561963296925  C 19.578025095951 6.8236705673603  19.8913595606955 8.02284912899245  19.9764554668884 9.29352892490078  C 19.9920711735551 9.52672194414708  20 9.76227976846758  20 10  C 20 15.5999999999999  15.5999999999999 20  10 20  Z " stroke-width="2" stroke="#ffffff" fill="none" transform="matrix(1 0 0 1 2926 1017 )" mask="url(#clip128)" />
  </g>
</svg>