<?xml version="1.0" encoding="utf-8"?>
<svg version="1.1" xmlns:xlink="http://www.w3.org/1999/xlink" width="22px" height="22px" xmlns="http://www.w3.org/2000/svg">
  <g transform="matrix(1 0 0 1 -2826 -1026 )">
    <path d="M 2837 1026  C 2843.16 1026  2848 1030.84  2848 1037  C 2848 1043.16  2843.16 1048  2837 1048  C 2830.84 1048  2826 1043.16  2826 1037  C 2826 1030.84  2830.84 1026  2837 1026  Z " fill-rule="nonzero" fill="#ffffff" stroke="none" />
    <path d="M 2837 1026.5  C 2842.88 1026.5  2847.5 1031.12  2847.5 1037  C 2847.5 1042.88  2842.88 1047.5  2837 1047.5  C 2831.12 1047.5  2826.5 1042.88  2826.5 1037  C 2826.5 1031.12  2831.12 1026.5  2837 1026.5  Z " stroke-width="1" stroke="#797979" fill="none" />
  </g>
</svg>