<?xml version="1.0" encoding="utf-8"?>
<svg version="1.1" xmlns:xlink="http://www.w3.org/1999/xlink" width="17px" height="15px" xmlns="http://www.w3.org/2000/svg">
  <g transform="matrix(1 0 0 1 -2611 -2774 )">
    <path d="M 2619.5 2774  C 2624.26 2774  2628 2777.3  2628 2781.5  C 2628 2785.7  2624.26 2789  2619.5 2789  C 2614.74 2789  2611 2785.7  2611 2781.5  C 2611 2777.3  2614.74 2774  2619.5 2774  Z " fill-rule="nonzero" fill="#ffffff" stroke="none" />
    <path d="M 2619.5 2774.5  C 2623.98 2774.5  2627.5 2777.58  2627.5 2781.5  C 2627.5 2785.42  2623.98 2788.5  2619.5 2788.5  C 2615.02 2788.5  2611.5 2785.42  2611.5 2781.5  C 2611.5 2777.58  2615.02 2774.5  2619.5 2774.5  Z " stroke-width="1" stroke="#a1a1a1" fill="none" />
  </g>
</svg>