<?xml version="1.0" encoding="utf-8"?>
<svg version="1.1" xmlns:xlink="http://www.w3.org/1999/xlink" width="43px" height="43px" xmlns="http://www.w3.org/2000/svg">
  <g transform="matrix(1 0 0 1 -5601 -3981 )">
    <path d="M 5622.5 3981  C 5634.54 3981  5644 3990.46  5644 4002.5  C 5644 4014.54  5634.54 4024  5622.5 4024  C 5610.46 4024  5601 4014.54  5601 4002.5  C 5601 3990.46  5610.46 3981  5622.5 3981  Z " fill-rule="nonzero" fill="#333333" stroke="none" />
    <path d="M 5622.5 3981.5  C 5634.26 3981.5  5643.5 3990.74  5643.5 4002.5  C 5643.5 4014.26  5634.26 4023.5  5622.5 4023.5  C 5610.74 4023.5  5601.5 4014.26  5601.5 4002.5  C 5601.5 3990.74  5610.74 3981.5  5622.5 3981.5  Z " stroke-width="1" stroke="#797979" fill="none" />
  </g>
</svg>