<?xml version="1.0" encoding="utf-8"?>
<svg version="1.1" xmlns:xlink="http://www.w3.org/1999/xlink" width="106px" height="38px" xmlns="http://www.w3.org/2000/svg">
  <g transform="matrix(1 0 0 1 -2798 -2477 )">
    <path d="M 2799 2480  A 2 2 0 0 1 2801 2478 L 2901 2478  A 2 2 0 0 1 2903 2480 L 2903 2512  A 2 2 0 0 1 2901 2514 L 2801 2514  A 2 2 0 0 1 2799 2512 L 2799 2480  Z " fill-rule="nonzero" fill="#6db773" stroke="none" fill-opacity="0.980392156862745" />
    <path d="M 2798.5 2480  A 2.5 2.5 0 0 1 2801 2477.5 L 2901 2477.5  A 2.5 2.5 0 0 1 2903.5 2480 L 2903.5 2512  A 2.5 2.5 0 0 1 2901 2514.5 L 2801 2514.5  A 2.5 2.5 0 0 1 2798.5 2512 L 2798.5 2480  Z " stroke-width="1" stroke="#10ad57" fill="none" stroke-opacity="0.298039215686275" />
  </g>
</svg>