<?xml version="1.0" encoding="utf-8"?>
<svg version="1.1" xmlns:xlink="http://www.w3.org/1999/xlink" width="20px" height="20px" xmlns="http://www.w3.org/2000/svg">
  <defs>
    <mask fill="white" id="clip130">
      <path d="M 10 20  C 8.21959932121126 20  6.56049302674728 19.5552539241407  5.12551569003062 18.7685963458448  C 2.04697358061958 17.080933120435  0 13.8195993212112  0 10  C 0 5.38769382712007  2.98478380811503 1.58941960190805  7.16646353046508 0.393065218244828  C 8.06224939639151 0.136829788822979  9.012466090629 0  10 0  C 15.3622653625825 0  19.6242543290391 4.03434678579424  19.9764554668882 9.29352892490078  C 19.9920711735549 9.52672194414708  20 9.76227976846758  20 10  C 20 12.5119533565608  19.114681041825 14.782456088165  17.6328587006196 16.5226926196679  C 15.8111941004472 18.6620363164207  13.0880466434392 20  10 20  Z " fill-rule="evenodd" />
    </mask>
  </defs>
  <g transform="matrix(1 0 0 1 -2894 -2472 )">
    <path d="M 10 20  C 8.21959932121126 20  6.56049302674728 19.5552539241407  5.12551569003062 18.7685963458448  C 2.04697358061958 17.080933120435  0 13.8195993212112  0 10  C 0 5.38769382712007  2.98478380811503 1.58941960190805  7.16646353046508 0.393065218244828  C 8.06224939639151 0.136829788822979  9.012466090629 0  10 0  C 15.3622653625825 0  19.6242543290391 4.03434678579424  19.9764554668882 9.29352892490078  C 19.9920711735549 9.52672194414708  20 9.76227976846758  20 10  C 20 12.5119533565608  19.114681041825 14.782456088165  17.6328587006196 16.5226926196679  C 15.8111941004472 18.6620363164207  13.0880466434392 20  10 20  Z " fill-rule="nonzero" fill="#027db4" stroke="none" transform="matrix(1 0 0 1 2894 2472 )" />
    <path d="M 10 20  C 8.21959932121126 20  6.56049302674728 19.5552539241407  5.12551569003062 18.7685963458448  C 2.04697358061958 17.080933120435  0 13.8195993212112  0 10  C 0 5.38769382712007  2.98478380811503 1.58941960190805  7.16646353046508 0.393065218244828  C 8.06224939639151 0.136829788822979  9.012466090629 0  10 0  C 15.3622653625825 0  19.6242543290391 4.03434678579424  19.9764554668882 9.29352892490078  C 19.9920711735549 9.52672194414708  20 9.76227976846758  20 10  C 20 12.5119533565608  19.114681041825 14.782456088165  17.6328587006196 16.5226926196679  C 15.8111941004472 18.6620363164207  13.0880466434392 20  10 20  Z " stroke-width="2" stroke="#ffffff" fill="none" transform="matrix(1 0 0 1 2894 2472 )" mask="url(#clip130)" />
  </g>
</svg>