<?xml version="1.0" encoding="utf-8"?>
<svg version="1.1" xmlns:xlink="http://www.w3.org/1999/xlink" width="14px" height="9px" xmlns="http://www.w3.org/2000/svg">
  <g transform="matrix(1 0 0 1 -1852 -2265 )">
    <path d="M 13.8597194388778 0.837113402061863  C 13.9532398129593 0.930126002290947  14 1.0370904925544  14 1.15800687285223  C 14 1.27892325315006  13.9532398129593 1.38588774341352  13.8597194388778 1.47890034364262  L 7.32264529058116 7.98048109965638  C 7.22912491649967 8.07349369988548  7.12157648630594 8.12000000000002  7 8.12000000000002  C 6.87842351369406 8.12000000000002  6.77087508350033 8.07349369988548  6.67735470941884 7.98048109965638  L 0.140280561122239 1.47890034364262  C 0.0467601870407464 1.38588774341352  0 1.27892325315006  0 1.15800687285223  C 0 1.0370904925544  0.0467601870407464 0.930126002290947  0.140280561122239 0.837113402061863  L 0.841683366733463 0.139518900343637  C 0.935203740814956 0.0465063001145527  1.04275217100869 0  1.16432865731463 0  C 1.28590514362057 0  1.3934535738143 0.0465063001145527  1.48697394789579 0.139518900343637  L 7 5.6226116838488  L 12.5130260521042 0.139518900343637  C 12.6065464261857 0.0465063001145527  12.7140948563794 0  12.8356713426854 0  C 12.9572478289913 0  13.064796259185 0.0465063001145527  13.1583166332665 0.139518900343637  L 13.8597194388778 0.837113402061863  Z " fill-rule="nonzero" fill="#dcdfe6" stroke="none" transform="matrix(1 0 0 1 1852 2265 )" />
  </g>
</svg>