<?xml version="1.0" encoding="utf-8"?>
<svg version="1.1" xmlns:xlink="http://www.w3.org/1999/xlink" width="19px" height="19px" xmlns="http://www.w3.org/2000/svg">
  <g transform="matrix(1 0 0 1 -1763 -3978 )">
    <path d="M 1772.5 3978  C 1777.82 3978  1782 3982.18  1782 3987.5  C 1782 3992.82  1777.82 3997  1772.5 3997  C 1767.18 3997  1763 3992.82  1763 3987.5  C 1763 3982.18  1767.18 3978  1772.5 3978  Z " fill-rule="nonzero" fill="#ffffff" stroke="none" />
    <path d="M 1772.5 3978.5  C 1777.54 3978.5  1781.5 3982.46  1781.5 3987.5  C 1781.5 3992.54  1777.54 3996.5  1772.5 3996.5  C 1767.46 3996.5  1763.5 3992.54  1763.5 3987.5  C 1763.5 3982.46  1767.46 3978.5  1772.5 3978.5  Z " stroke-width="1" stroke="#797979" fill="none" />
  </g>
</svg>