<?xml version="1.0" encoding="utf-8"?>
<svg version="1.1" xmlns:xlink="http://www.w3.org/1999/xlink" width="38px" height="38px" xmlns="http://www.w3.org/2000/svg">
  <g transform="matrix(1 0 0 1 -4691 -121 )">
    <path d="M 4710 121  C 4720.64 121  4729 129.36  4729 140  C 4729 150.64  4720.64 159  4710 159  C 4699.36 159  4691 150.64  4691 140  C 4691 129.36  4699.36 121  4710 121  Z " fill-rule="nonzero" fill="#ffffff" stroke="none" />
    <path d="M 4710 121.5  C 4720.36 121.5  4728.5 129.64  4728.5 140  C 4728.5 150.36  4720.36 158.5  4710 158.5  C 4699.64 158.5  4691.5 150.36  4691.5 140  C 4691.5 129.64  4699.64 121.5  4710 121.5  Z " stroke-width="1" stroke="#797979" fill="none" />
  </g>
</svg>