<?xml version="1.0" encoding="utf-8"?>
<svg version="1.1" xmlns:xlink="http://www.w3.org/1999/xlink" width="20px" height="20px" xmlns="http://www.w3.org/2000/svg">
  <defs>
    <mask fill="white" id="clip139">
      <path d="M 10 20  C 9.39200963317035 20  8.79816412422952 19.9481355210748  8.22255868143202 19.8485017714799  C 3.49645104533556 19.0304417085218  0 14.9920096331703  0 10  C 0 4.39999999999998  4.39999999999964 0  10 0  C 15.3622653625825 0  19.6242543290391 4.03434678579413  19.9764554668882 9.29352892490067  C 19.9920711735549 9.5267219441472  20 9.76227976846747  20 10  C 20 10.6315430954931  19.9440393686718 11.2478242006241  19.8367079177478 11.8442535036611  C 18.9922826472321 16.5364904841729  14.9684380757744 20  10 20  Z " fill-rule="evenodd" />
    </mask>
  </defs>
  <g transform="matrix(1 0 0 1 -4595 -111 )">
    <path d="M 10 20  C 9.39200963317035 20  8.79816412422952 19.9481355210748  8.22255868143202 19.8485017714799  C 3.49645104533556 19.0304417085218  0 14.9920096331703  0 10  C 0 4.39999999999998  4.39999999999964 0  10 0  C 15.3622653625825 0  19.6242543290391 4.03434678579413  19.9764554668882 9.29352892490067  C 19.9920711735549 9.5267219441472  20 9.76227976846747  20 10  C 20 10.6315430954931  19.9440393686718 11.2478242006241  19.8367079177478 11.8442535036611  C 18.9922826472321 16.5364904841729  14.9684380757744 20  10 20  Z " fill-rule="nonzero" fill="#027db4" stroke="none" transform="matrix(1 0 0 1 4595 111 )" />
    <path d="M 10 20  C 9.39200963317035 20  8.79816412422952 19.9481355210748  8.22255868143202 19.8485017714799  C 3.49645104533556 19.0304417085218  0 14.9920096331703  0 10  C 0 4.39999999999998  4.39999999999964 0  10 0  C 15.3622653625825 0  19.6242543290391 4.03434678579413  19.9764554668882 9.29352892490067  C 19.9920711735549 9.5267219441472  20 9.76227976846747  20 10  C 20 10.6315430954931  19.9440393686718 11.2478242006241  19.8367079177478 11.8442535036611  C 18.9922826472321 16.5364904841729  14.9684380757744 20  10 20  Z " stroke-width="2" stroke="#ffffff" fill="none" transform="matrix(1 0 0 1 4595 111 )" mask="url(#clip139)" />
  </g>
</svg>