<?xml version="1.0" encoding="utf-8"?>
<svg version="1.1" xmlns:xlink="http://www.w3.org/1999/xlink" width="27px" height="27px" xmlns="http://www.w3.org/2000/svg">
  <defs>
    <mask fill="white" id="clip140">
      <path d="M 13.5 27  C 5.94000000000012 27  0 21.06  0 13.5  C 0 5.93999999999997  5.94000000000012 0  13.5 0  C 20.7390582394861 0  26.4927433442028 5.44636816082207  26.9682148802994 12.5462640486159  C 26.9892960842994 12.8610746245987  27 13.1790776874311  27 13.5  C 27 21.06  21.0599999999999 27  13.5 27  Z " fill-rule="evenodd" />
    </mask>
  </defs>
  <g transform="matrix(1 0 0 1 -3960 -280 )">
    <path d="M 13.5 27  C 5.94000000000012 27  0 21.06  0 13.5  C 0 5.93999999999997  5.94000000000012 0  13.5 0  C 20.7390582394861 0  26.4927433442028 5.44636816082207  26.9682148802994 12.5462640486159  C 26.9892960842994 12.8610746245987  27 13.1790776874311  27 13.5  C 27 21.06  21.0599999999999 27  13.5 27  Z " fill-rule="nonzero" fill="#027db4" stroke="none" transform="matrix(1 0 0 1 3960 280 )" />
    <path d="M 13.5 27  C 5.94000000000012 27  0 21.06  0 13.5  C 0 5.93999999999997  5.94000000000012 0  13.5 0  C 20.7390582394861 0  26.4927433442028 5.44636816082207  26.9682148802994 12.5462640486159  C 26.9892960842994 12.8610746245987  27 13.1790776874311  27 13.5  C 27 21.06  21.0599999999999 27  13.5 27  Z " stroke-width="2" stroke="#ffffff" fill="none" transform="matrix(1 0 0 1 3960 280 )" mask="url(#clip140)" />
  </g>
</svg>