<?xml version="1.0" encoding="utf-8"?>
<svg version="1.1" xmlns:xlink="http://www.w3.org/1999/xlink" width="12px" height="12px" viewBox="4134 3146  12 12" xmlns="http://www.w3.org/2000/svg">
  <path d="M 4140 3146  C 4143.36 3146  4146 3148.64  4146 3152  C 4146 3155.36  4143.36 3158  4140 3158  C 4136.64 3158  4134 3155.36  4134 3152  C 4134 3148.64  4136.64 3146  4140 3146  Z " fill-rule="nonzero" fill="#ffffff" stroke="none" />
  <path d="M 4140 3146.5  C 4143.08 3146.5  4145.5 3148.92  4145.5 3152  C 4145.5 3155.08  4143.08 3157.5  4140 3157.5  C 4136.92 3157.5  4134.5 3155.08  4134.5 3152  C 4134.5 3148.92  4136.92 3146.5  4140 3146.5  Z " stroke-width="1" stroke="#797979" fill="none" />
  <path d="M 4140 3155  C 4138.32 3155  4137 3153.68  4137 3152  C 4137 3150.32  4138.32 3149  4140 3149  C 4141.68 3149  4143 3150.32  4143 3152  C 4143 3153.68  4141.68 3155  4140 3155  " fill-rule="nonzero" fill="#797979" stroke="none" />
</svg>