<?xml version="1.0" encoding="utf-8"?>
<svg version="1.1" xmlns:xlink="http://www.w3.org/1999/xlink" width="56px" height="56px" xmlns="http://www.w3.org/2000/svg">
  <g transform="matrix(1 0 0 1 -1485 -2125 )">
    <path d="M 1513 2125  C 1528.68 2125  1541 2137.32  1541 2153  C 1541 2168.68  1528.68 2181  1513 2181  C 1497.32 2181  1485 2168.68  1485 2153  C 1485 2137.32  1497.32 2125  1513 2125  Z " fill-rule="nonzero" fill="#ffffff" stroke="none" />
    <path d="M 1513 2125.5  C 1528.4 2125.5  1540.5 2137.6  1540.5 2153  C 1540.5 2168.4  1528.4 2180.5  1513 2180.5  C 1497.6 2180.5  1485.5 2168.4  1485.5 2153  C 1485.5 2137.6  1497.6 2125.5  1513 2125.5  Z " stroke-width="1" stroke="#797979" fill="none" />
  </g>
</svg>