<?xml version="1.0" encoding="utf-8"?>
<svg version="1.1" xmlns:xlink="http://www.w3.org/1999/xlink" width="11px" height="11px" xmlns="http://www.w3.org/2000/svg">
  <g transform="matrix(1 0 0 1 -1554 -4413 )">
    <path d="M 1559.5 4413  C 1562.58 4413  1565 4415.42  1565 4418.5  C 1565 4421.58  1562.58 4424  1559.5 4424  C 1556.42 4424  1554 4421.58  1554 4418.5  C 1554 4415.42  1556.42 4413  1559.5 4413  Z " fill-rule="nonzero" fill="#555555" stroke="none" />
    <path d="M 1559.5 4413.5  C 1562.3 4413.5  1564.5 4415.7  1564.5 4418.5  C 1564.5 4421.3  1562.3 4423.5  1559.5 4423.5  C 1556.7 4423.5  1554.5 4421.3  1554.5 4418.5  C 1554.5 4415.7  1556.7 4413.5  1559.5 4413.5  Z " stroke-width="1" stroke="#797979" fill="none" />
  </g>
</svg>