<?xml version="1.0" encoding="utf-8"?>
<svg version="1.1" xmlns:xlink="http://www.w3.org/1999/xlink" width="63px" height="63px" xmlns="http://www.w3.org/2000/svg">
  <g transform="matrix(1 0 0 1 -1430 -7854 )">
    <path d="M 1461.5 7854  C 1479.14 7854  1493 7867.86  1493 7885.5  C 1493 7903.14  1479.14 7917  1461.5 7917  C 1443.86 7917  1430 7903.14  1430 7885.5  C 1430 7867.86  1443.86 7854  1461.5 7854  Z " fill-rule="nonzero" fill="#ffffff" stroke="none" />
    <path d="M 1461.5 7854.5  C 1478.86 7854.5  1492.5 7868.14  1492.5 7885.5  C 1492.5 7902.86  1478.86 7916.5  1461.5 7916.5  C 1444.14 7916.5  1430.5 7902.86  1430.5 7885.5  C 1430.5 7868.14  1444.14 7854.5  1461.5 7854.5  Z " stroke-width="1" stroke="#797979" fill="none" />
  </g>
</svg>